<svg width="223" height="240" viewBox="0 0 223 240" fill="none" xmlns="http://www.w3.org/2000/svg">
<path d="M147.369 8.7678L111.629 44.5074V61.4466L158.258 14.8185C154.795 12.5478 151.158 10.5226 147.369 8.7678Z" fill="white"/>
<path d="M134.669 4.07935L111.629 27.1188V10.1796L120.434 1.37483C125.313 1.87612 130.07 2.78942 134.669 4.07935Z" fill="white"/>
<path d="M168.108 22.3565L111.629 78.8352V93.2772L168.109 149.756C171.098 147.104 173.9 144.244 176.491 141.199L121.348 86.0562L176.49 30.9135C173.899 27.8689 171.098 25.0091 168.108 22.3565Z" fill="white"/>
<path d="M183.843 40.9499L138.736 86.0562L183.843 131.163C186.053 127.632 188.012 123.927 189.693 120.074L155.675 86.0562L189.693 52.0389C188.011 48.1856 186.053 44.4809 183.843 40.9499Z" fill="white"/>
<path d="M194.134 64.9866L173.064 86.0562L194.134 107.126C195.332 102.418 196.139 97.5534 196.516 92.5688L190.003 86.0562L196.516 79.5437C196.139 74.5592 195.332 69.6945 194.134 64.9866Z" fill="white"/>
<path d="M158.258 157.294L111.629 110.666V127.605L147.37 163.345C151.158 161.59 154.796 159.565 158.258 157.294Z" fill="white"/>
<path d="M134.67 168.034L111.629 144.994L111.629 161.933L120.435 170.738C125.314 170.237 130.07 169.324 134.67 168.034Z" fill="white"/>
<path d="M99.4679 1.78717C103.44 1.21902 107.5 0.925049 111.63 0.925049V171.188C107.5 171.188 103.44 170.894 99.4679 170.326L99.4679 1.78717Z" fill="white"/>
<path d="M75.1446 9.11751C79.0444 7.2649 83.1075 5.70007 87.3063 4.45045L87.3062 167.663C83.1075 166.413 79.0444 164.848 75.1446 162.996L75.1446 9.11751Z" fill="white"/>
<path d="M50.8213 26.4769C54.5403 22.6816 58.6119 19.233 62.9829 16.1841L62.9829 155.929C58.6119 152.88 54.5403 149.432 50.8213 145.636L50.8213 26.4769Z" fill="white"/>
<path d="M26.4979 86.0146C26.5057 69.981 30.9459 54.984 38.6596 42.1824L38.6596 129.931C30.9459 117.129 26.5057 102.132 26.4979 86.0988C26.4979 86.0847 26.4979 86.0707 26.4979 86.0567C26.4979 86.0426 26.4979 86.0286 26.4979 86.0146Z" fill="white"/>
<path d="M0.0266113 238.316V201.442H6.95411V224.034L18.3641 209.812H27.038L15.337 224.034L27.0962 238.316H18.4223L6.95411 224.034V238.316H0.0266113Z" fill="white"/>
<path d="M51.3133 224.034C51.3133 221.635 50.4983 219.586 48.8101 217.889C47.1219 216.192 45.0844 215.314 42.6976 215.314C40.3108 215.314 38.2733 216.192 36.5851 217.889C34.8969 219.586 34.0819 221.635 34.0819 224.034C34.0819 226.493 34.8969 228.541 36.5851 230.297C38.2733 231.994 40.3108 232.872 42.6976 232.872C45.1426 232.872 47.1801 231.994 48.8101 230.297C50.4983 228.541 51.3133 226.493 51.3133 224.034ZM58.5319 224.034C58.5319 228.307 56.9601 231.877 53.8165 234.804C50.673 237.672 46.9472 239.135 42.6394 239.135C38.3897 239.135 34.664 237.672 31.4623 234.804C28.3187 231.877 26.6887 228.307 26.6887 224.034C26.6887 219.82 28.2605 216.25 31.404 213.324C34.5476 210.397 38.2733 208.934 42.5812 208.934C46.889 208.934 50.5565 210.397 53.7583 213.324C56.9601 216.25 58.5319 219.82 58.5319 224.034Z" fill="white"/>
<path d="M62.7235 238.316V199.686H69.651V238.316H62.7235Z" fill="white"/>
<path d="M104.463 224.034C104.463 224.971 104.346 226.024 104.055 227.195H81.2354C81.7011 228.892 82.749 230.297 84.2626 231.409C85.7761 232.521 87.4061 233.048 89.2108 233.048C90.7825 233.048 92.3543 232.638 93.8097 231.877C95.265 231.116 96.3711 230.122 97.1279 228.892L101.843 233.048C100.388 234.921 98.5833 236.384 96.3711 237.496C94.159 238.55 91.7722 239.076 89.2108 239.076C84.9029 239.076 81.2354 237.613 78.2665 234.745C75.2976 231.819 73.784 228.249 73.784 223.976C73.784 219.703 75.2976 216.133 78.2665 213.265C81.2936 210.397 84.9029 208.934 89.2108 208.934C93.4022 208.934 97.0115 210.397 99.9804 213.324C103.008 216.309 104.463 219.82 104.463 224.034ZM81.3518 221.284H97.0697C96.6622 219.469 95.7308 217.947 94.2754 216.777C92.82 215.606 91.19 215.021 89.269 215.021C87.4061 215.021 85.7179 215.606 84.2043 216.835C82.749 217.947 81.7593 219.469 81.3518 221.284Z" fill="white"/>
<path d="M108.654 238.316V199.686H115.581V224.034L126.991 209.812H135.665L123.964 224.034L135.724 238.316H127.05L115.581 224.034V238.316H108.654Z" fill="white"/>
<path d="M136.83 215.548V209.812H139.45V203.198H146.377V209.87H151.209V215.606H146.377V230.824C146.377 231.409 146.61 231.936 147.076 232.346C147.541 232.755 148.124 232.989 148.706 232.989C149.521 232.989 150.103 232.872 150.51 232.58L151.849 238.081C150.452 238.784 148.764 239.135 146.726 239.135C144.572 239.135 142.768 238.433 141.429 237.028C140.09 235.623 139.391 233.809 139.391 231.585V215.548H136.83Z" fill="white"/>
<path d="M154.818 209.812H161.746V238.257H154.818V209.812ZM155.4 206.476C154.585 205.656 154.178 204.72 154.178 203.549C154.178 202.437 154.585 201.442 155.4 200.623C156.215 199.803 157.205 199.394 158.311 199.394C159.475 199.394 160.407 199.803 161.222 200.623C162.037 201.442 162.444 202.379 162.444 203.549C162.444 204.661 162.037 205.656 161.222 206.476C160.407 207.295 159.475 207.705 158.311 207.705C157.147 207.705 156.215 207.295 155.4 206.476Z" fill="white"/>
<path d="M215.769 224.034C215.769 221.635 214.954 219.586 213.265 217.889C211.577 216.192 209.54 215.314 207.153 215.314C204.766 215.314 202.729 216.192 201.04 217.889C199.352 219.586 198.537 221.635 198.537 224.034C198.537 226.493 199.352 228.541 201.04 230.297C202.729 231.994 204.766 232.872 207.153 232.872C209.598 232.872 211.635 231.994 213.265 230.297C214.954 228.541 215.769 226.493 215.769 224.034ZM222.987 224.034C222.987 228.307 221.415 231.877 218.272 234.804C215.128 237.672 211.403 239.135 207.095 239.135C202.845 239.135 199.119 237.672 195.918 234.804C192.774 231.877 191.144 228.307 191.144 224.034C191.144 219.82 192.716 216.25 195.859 213.324C199.003 210.397 202.729 208.934 207.037 208.934C211.344 208.934 215.012 210.397 218.214 213.324C221.415 216.25 222.987 219.82 222.987 224.034Z" fill="white"/>
<path d="M184.973 209.812L178.22 224.386H178.046L171.293 209.812H164.191L178.104 238.667L192.134 209.812H184.973Z" fill="white"/>
</svg>
